# xmcd
#
# Track frame offsets:
# 150
# 12055
# 23837
# 33857
# 46755
# 58960
# 70620
# 82512
# 94675
# 106602
# 120475
# 133980
# 146320
# 159417
# 172525
#
# Disc length: 2464 seconds
#
# Revision: 4
# Processed by: cddbd v1.5.2PL0 Copyright (c) Steve Scherf et al.
# Submitted via: Axialis_AX_CDPlayer 2.6
#
DISCID=a2099e0f
DTITLE=Various Artist - Classic Country Golden '40s Disc 1
DYEAR=1999
DGENRE=Country
TTITLE0=Walking The Floor Over You - Ernest Tubb
TTITLE1=New San Antonio Rose - Bob Wills
TTITLE2=Slipping Around - Jimmy Wakely and Margaret Whiting
TTITLE3=Shame On You - Spade Cooley
TTITLE4=Born To Lose - Ted Daffan
TTITLE5=Bouquet Of Roses - Eddy Arnold
TTITLE6=Signed, Sealed and Delivered - Cowboy Copas
TTITLE7=Tumbling Tumbleweeds - Sons of the Pioneers
TTITLE8=Wabash Cannon Ball - Roy Acuff
TTITLE9=Mule Train - Tennessee Ernie Ford
TTITLE10=So Round, So Firm, So Fully Packed - Merle Travis
TTITLE11=Have I Told You Lately That I Love You - Gene Autry
TTITLE12=So Long, Pal - Al Dexter
TTITLE13=Smoke On The Water - Red Foley
TTITLE14=There's A Star-Spangled Banner Waving Somewhere - Elton Britt
EXTD=
EXTT0=
EXTT1=
EXTT2=
EXTT3=
EXTT4=
EXTT5=
EXTT6=
EXTT7=
EXTT8=
EXTT9=
EXTT10=
EXTT11=
EXTT12=
EXTT13=
EXTT14=
PLAYORDER=
